<?xml version="1.0" encoding="UTF-8" standalone="no"?>
<!-- Created with Inkscape (http://www.inkscape.org/) -->

<svg
   width="728.16516mm"
   height="49.934937mm"
   viewBox="0 0 728.16514 49.934936"
   version="1.1"
   id="svg5"
   xmlns="http://www.w3.org/2000/svg"
   xmlns:svg="http://www.w3.org/2000/svg">
  <defs
     id="defs2">
    <clipPath
       clipPathUnits="userSpaceOnUse"
       id="clipPath15446">
      <rect
         style="fill:#000000;fill-opacity:1;stroke-width:0.264583"
         id="rect15448"
         width="178.96953"
         height="51.838352"
         x="-5.7084823"
         y="121.32449" />
    </clipPath>
    <clipPath
       clipPathUnits="userSpaceOnUse"
       id="clipPath15450">
      <rect
         style="fill:#000000;fill-opacity:1;stroke-width:0.264583"
         id="rect15452"
         width="178.96953"
         height="51.838352"
         x="-5.7084823"
         y="121.32449" />
    </clipPath>
    <clipPath
       clipPathUnits="userSpaceOnUse"
       id="clipPath15454">
      <rect
         style="fill:#000000;fill-opacity:1;stroke-width:0.264583"
         id="rect15456"
         width="178.96953"
         height="51.838352"
         x="-5.7084823"
         y="121.32449" />
    </clipPath>
    <clipPath
       clipPathUnits="userSpaceOnUse"
       id="clipPath15458">
      <rect
         style="fill:#000000;fill-opacity:1;stroke-width:0.264583"
         id="rect15460"
         width="178.96953"
         height="51.838352"
         x="-5.7084823"
         y="121.32449" />
    </clipPath>
    <clipPath
       clipPathUnits="userSpaceOnUse"
       id="clipPath17727">
      <g
         id="g17731">
        <rect
           style="fill:#000000;fill-opacity:1;stroke-width:0.264583"
           id="rect17729"
           width="178.96953"
           height="51.838352"
           x="-5.7084823"
           y="121.32449" />
      </g>
    </clipPath>
    <clipPath
       clipPathUnits="userSpaceOnUse"
       id="clipPath17733">
      <g
         id="g17737">
        <rect
           style="fill:#000000;fill-opacity:1;stroke-width:0.264583"
           id="rect17735"
           width="178.96953"
           height="51.838352"
           x="-5.7084823"
           y="121.32449" />
      </g>
    </clipPath>
    <clipPath
       clipPathUnits="userSpaceOnUse"
       id="clipPath17739">
      <g
         id="g17743">
        <rect
           style="fill:#000000;fill-opacity:1;stroke-width:0.264583"
           id="rect17741"
           width="178.96953"
           height="51.838352"
           x="-5.7084823"
           y="121.32449" />
      </g>
    </clipPath>
    <clipPath
       clipPathUnits="userSpaceOnUse"
       id="clipPath17745">
      <g
         id="g17749">
        <rect
           style="fill:#000000;fill-opacity:1;stroke-width:0.264583"
           id="rect17747"
           width="178.96953"
           height="51.838352"
           x="-5.7084823"
           y="121.32449" />
      </g>
    </clipPath>
    <clipPath
       clipPathUnits="userSpaceOnUse"
       id="clipPath17751">
      <g
         id="g17755">
        <rect
           style="fill:#000000;fill-opacity:1;stroke-width:0.264583"
           id="rect17753"
           width="178.96953"
           height="51.838352"
           x="-5.7084823"
           y="121.32449" />
      </g>
    </clipPath>
    <clipPath
       clipPathUnits="userSpaceOnUse"
       id="clipPath17757">
      <g
         id="g17761">
        <rect
           style="fill:#000000;fill-opacity:1;stroke-width:0.264583"
           id="rect17759"
           width="178.96953"
           height="51.838352"
           x="-5.7084823"
           y="121.32449" />
      </g>
    </clipPath>
    <clipPath
       clipPathUnits="userSpaceOnUse"
       id="clipPath17793">
      <rect
         style="fill:#000000;fill-opacity:1;stroke-width:0.264583"
         id="rect17795"
         width="489.17294"
         height="51.838352"
         x="-315.9119"
         y="121.32449" />
    </clipPath>
    <clipPath
       clipPathUnits="userSpaceOnUse"
       id="clipPath17797">
      <rect
         style="fill:#000000;fill-opacity:1;stroke-width:0.264583"
         id="rect17799"
         width="489.17294"
         height="51.838352"
         x="-315.9119"
         y="121.32449" />
    </clipPath>
    <clipPath
       clipPathUnits="userSpaceOnUse"
       id="clipPath17801">
      <rect
         style="fill:#000000;fill-opacity:1;stroke-width:0.264583"
         id="rect17803"
         width="489.17294"
         height="51.838352"
         x="-315.9119"
         y="121.32449" />
    </clipPath>
    <clipPath
       clipPathUnits="userSpaceOnUse"
       id="clipPath17805">
      <rect
         style="fill:#000000;fill-opacity:1;stroke-width:0.264583"
         id="rect17807"
         width="489.17294"
         height="51.838352"
         x="-315.9119"
         y="121.32449" />
    </clipPath>
    <clipPath
       clipPathUnits="userSpaceOnUse"
       id="clipPath17809">
      <rect
         style="fill:#000000;fill-opacity:1;stroke-width:0.264583"
         id="rect17811"
         width="489.17294"
         height="51.838352"
         x="-315.9119"
         y="121.32449" />
    </clipPath>
    <clipPath
       clipPathUnits="userSpaceOnUse"
       id="clipPath17827">
      <rect
         style="fill:#000000;fill-opacity:1;stroke-width:0.264583"
         id="rect17829"
         width="750.64734"
         height="51.838352"
         x="-303.41788"
         y="121.32449" />
    </clipPath>
    <clipPath
       clipPathUnits="userSpaceOnUse"
       id="clipPath17831">
      <rect
         style="fill:#000000;fill-opacity:1;stroke-width:0.264583"
         id="rect17833"
         width="750.64734"
         height="51.838352"
         x="-303.41788"
         y="121.32449" />
    </clipPath>
    <clipPath
       clipPathUnits="userSpaceOnUse"
       id="clipPath17835">
      <rect
         style="fill:#000000;fill-opacity:1;stroke-width:0.264583"
         id="rect17837"
         width="750.64734"
         height="51.838352"
         x="-303.41788"
         y="121.32449" />
    </clipPath>
    <clipPath
       clipPathUnits="userSpaceOnUse"
       id="clipPath17839">
      <rect
         style="fill:#000000;fill-opacity:1;stroke-width:0.264583"
         id="rect17841"
         width="750.64734"
         height="51.838352"
         x="-303.41788"
         y="121.32449" />
    </clipPath>
    <clipPath
       clipPathUnits="userSpaceOnUse"
       id="clipPath17843">
      <rect
         style="fill:#000000;fill-opacity:1;stroke-width:0.264583"
         id="rect17845"
         width="750.64734"
         height="51.838352"
         x="-303.41788"
         y="121.32449" />
    </clipPath>
    <clipPath
       clipPathUnits="userSpaceOnUse"
       id="clipPath17847">
      <rect
         style="fill:#000000;fill-opacity:1;stroke-width:0.264583"
         id="rect17849"
         width="750.64734"
         height="51.838352"
         x="-303.41788"
         y="121.32449" />
    </clipPath>
  </defs>
  <g
     id="layer1"
     transform="translate(280.9357,-123.22791)">
    <path
       style="fill:#000000;fill-opacity:1;stroke-width:0.264583"
       d="m 40.896301,170.51446 c 0.240967,-0.0779 0.473083,-0.19215 0.722903,-0.23365 0.452556,-0.0752 0.91744,-0.0489 1.371518,-0.11422 1.698506,-0.24445 3.468293,-0.70313 4.969653,-1.55324 0.707808,-0.40079 1.266346,-0.69107 1.666668,-1.36873 0.298395,-0.50511 0.47389,-1.56938 0.551164,-2.1723 0.09324,-0.72746 0.05866,-1.80335 0,-2.53016 -0.03568,-0.44207 -0.180874,-0.87052 -0.218868,-1.3124 -0.01863,-0.21661 0.02328,-0.43606 0,-0.65221 -0.03218,-0.29872 -0.252437,-0.54931 -0.323908,-0.84113 -0.06577,-0.26855 -0.05823,-0.55062 -0.11143,-0.82195 -0.07956,-0.40583 -0.338664,-0.756 -0.470884,-1.14785 -0.211341,-0.62635 -0.136578,-1.29766 -0.440931,-1.90711 -0.273449,-0.54756 -1.330169,-2.01467 -1.908302,-2.33965 -0.173117,-0.0973 -0.388035,-0.11094 -0.553161,-0.22126 -0.432867,-0.28921 -0.437341,-0.51577 -0.765239,-0.87148 -0.581332,-0.63064 -1.269368,-1.16465 -1.754134,-1.88154 -0.533591,-0.78909 -0.693055,-1.58835 -1.065184,-2.45188 -0.08465,-0.19642 -0.241964,-0.35539 -0.329898,-0.55036 -0.24783,-0.5495 -0.426003,-1.12869 -0.602687,-1.70501 -0.211103,-0.68861 -0.037,-0.38593 -0.105439,-1.06878 -0.07357,-0.73402 -0.184994,-0.45197 -0.339884,-1.3164 -0.126343,-0.70511 0,-1.54915 0,-2.26776 0,-0.79335 -0.287467,-1.68638 -0.105838,-2.47743 0.05225,-0.22757 0.155789,-0.44039 0.22366,-0.6638 0.04085,-0.13445 0.03033,-0.28825 0.102243,-0.40898 0.420613,-0.70609 1.275493,-1.70384 2.016538,-2.12597 0.123756,-0.0705 0.28467,-0.045 0.414573,-0.10344 0.193037,-0.0868 0.348062,-0.24741 0.543972,-0.3275 0.552551,-0.22591 1.901529,-0.44798 2.332858,-0.53839 0.554117,-0.11614 2.220166,-0.50765 2.710685,-0.56833 0.303356,-0.0375 0.613495,0.0363 0.917007,0 0.486902,-0.0582 0.956093,-0.23111 1.443807,-0.28198 0.417632,-0.0436 0.839793,0 1.259687,0 1.011928,0 2.054505,-0.0613 3.063748,0 0.236098,0.0143 0.464655,0.0955 0.700537,0.11303 0.272965,0.0203 0.550301,-0.0395 0.821153,0 0.910907,0.13289 1.770128,0.61454 2.644785,0.88586 0.102801,0.0319 1.596552,0.46415 1.711799,0.49285 0.179604,0.0447 0.375285,0.032 0.545174,0.10544 0.395213,0.17089 0.753488,0.41701 1.133078,0.62026 1.326555,0.71028 2.677025,1.55484 3.619704,2.7646 0.563163,0.72272 0.749757,1.44206 0.879064,2.32048 0.209548,1.42351 0.542335,3.03043 -0.09346,4.41649 -0.09363,0.20411 -0.249518,0.37465 -0.351467,0.57473 -0.08723,0.17119 -0.109109,0.37425 -0.214074,0.53519 -0.496716,0.76156 -0.567955,0.62508 -1.075968,1.20377 -0.375425,0.42765 -0.66566,0.92449 -1.032031,1.35993 -0.682101,0.81069 -1.440619,1.62282 -2.230215,2.33446 -0.629404,0.56726 -0.81897,0.52818 -1.416648,1.30122 -0.219832,0.28433 -0.357323,0.6237 -0.535588,0.93578 -0.234974,0.41136 -0.519515,0.79824 -0.704131,1.23453 -0.140538,0.33212 -0.153675,0.70575 -0.2624,1.0496 -0.315659,0.9983 -0.895147,1.90073 -1.145061,2.91757 -0.250209,1.01804 -0.11343,2.16426 -0.11343,3.20394 0,1.14274 0.03008,2.24482 0.113829,3.38406 0.01024,0.13928 -0.02853,0.28225 0,0.41896 0.119351,0.57188 0.363781,1.07924 0.44772,1.66428 0.06286,0.43812 0.471535,3.33934 0.635434,3.54421 0.07677,0.096 0.219162,0.11829 0.306734,0.20449 0.09809,0.0966 0.146397,0.41044 0.403789,0.60349 0.299595,0.2247 0.176268,-0.008 0.613468,0.10224 0.149429,0.0376 0.262281,0.17666 0.413372,0.20689 0.701296,0.14031 2.36225,0.005 2.981473,-0.30754 0.109683,-0.0554 0.19145,-0.16023 0.305136,-0.20688 0.207558,-0.0852 0.0013,0.45241 -0.04753,0.67138 -0.279612,1.25341 0.102753,-0.20551 -0.306734,0.61347 -0.03049,0.061 0.02532,0.1412 0,0.20449 -0.10205,0.25512 -0.272654,0.47714 -0.40898,0.71571 -1.042435,1.82426 -2.789296,1.578 -4.638556,1.578 -0.970126,0 -1.940256,0 -2.910382,0 -2.143146,0 -4.28629,0 -6.429436,0 -0.65709,0 -2.338131,0.12372 -3.024209,0 -0.239463,-0.0432 -0.457599,-0.17166 -0.696142,-0.21966 -0.322215,-0.0648 -1.732418,-0.19412 -2.063269,-0.25242 -0.423457,-0.0746 -0.836056,-0.20367 -1.259287,-0.27957 -0.357695,-0.0642 -0.725328,-0.0664 -1.081158,-0.14019 -0.552196,-0.11453 -1.117047,-0.20757 -1.637912,-0.42376 -0.04258,-0.0177 -0.919818,-0.8276 -0.950158,-0.94896 -0.115607,-0.46242 -0.02021,-1.34866 0.40898,-1.63591 0.153111,-0.10248 0.49925,-0.12611 0.607877,-0.30354 0.03663,-0.0598 -0.0123,-0.14141 0,-0.21048 0.03164,-0.17758 0.08014,-0.35173 0.120216,-0.5276 z"
       id="path1061"
       clip-path="url(#clipPath17847)" />
    <path
       style="fill:#000000;fill-opacity:1;stroke-width:0.264583"
       d="m 144.74466,130.34679 c 0.21139,0.61727 -0.10862,1.02353 -0.21886,1.63232 -0.0247,0.13637 0.0336,0.28131 0,0.41577 -0.0372,0.14886 -0.15235,0.26782 -0.20649,0.41138 -0.22684,0.60149 -0.095,1.27576 -0.32111,1.89552 -0.0871,0.23877 -0.2576,0.44247 -0.33749,0.68376 -0.1792,0.54124 -0.42112,1.99234 -0.49365,2.46226 -0.0263,0.17026 0.0252,0.3464 0,0.51682 -0.0547,0.36931 -0.1878,0.72445 -0.23844,1.09433 -0.11541,0.84308 0,1.82257 0,2.67554 0,1.63805 0,3.27609 0,4.91414 0,0.3086 -0.0701,0.62526 0,0.92579 0.0537,0.23014 0.28385,0.39828 0.32231,0.63145 0.0735,0.4458 0.0339,0.92686 0.10225,1.37231 0.34143,2.22659 0.0364,-0.0445 0.42455,1.27926 0.64471,2.19885 -0.25623,-0.39224 0.21847,1.10672 0.18525,0.58497 0.36524,1.17172 0.56195,1.75294 0.11129,0.32884 0.32722,0.61749 0.42655,0.95015 0.0635,0.21255 0.0463,0.44426 0.11303,0.65581 0.19789,0.62715 0.58381,1.23546 0.76683,1.86477 0.124,0.42634 0.25256,1.06014 0.31752,1.5149 0.0379,0.26501 -0.0641,0.56856 0,0.82634 0.03,0.12057 0.16706,0.1925 0.20649,0.31033 0.0757,0.22624 -0.0337,0.47954 0,0.71571 0.0439,0.30714 0.1732,0.60564 0.20449,0.92021 0.23469,2.35977 -0.24839,-0.96151 0.10823,1.15584 0.17251,1.02422 -0.19817,2.63146 0,3.6193 0.0378,0.18829 0.15639,0.35196 0.21128,0.53599 0.15055,0.50472 0.0447,0.88129 0.10824,1.3859 0.0736,0.58495 0.33117,1.17106 0.41377,1.75373 0.0941,0.66409 0,1.39998 0,2.07126 0,1.00838 -0.16593,2.21842 0.20449,3.16 0.11731,0.2982 1.09435,0.4625 1.35474,0.4625 0.21681,0 0.70536,0.0707 0.91661,0 0.11653,-0.039 0.20449,-0.13633 0.30673,-0.20449 0.53843,-0.35895 0.268,-0.48922 0.51123,-1.02724 0.19842,-0.43892 0.68579,-0.70625 0.83473,-1.14027 0.0498,-0.14513 -0.0255,-0.34936 0,-0.50084 0.0865,-0.51389 0.10424,-0.89665 0.10424,-1.43462 0,-0.26235 0.0913,-0.89137 0,-1.13508 -0.0606,-0.16173 -0.23325,-0.26022 -0.31073,-0.41457 -0.11038,-0.21992 -0.15176,-1.20529 -0.20808,-1.4506 -0.0478,-0.20804 -0.19352,-0.38681 -0.23245,-0.59669 -0.0399,-0.2152 0.0207,-0.43872 0,-0.6566 -0.0625,-0.65832 -0.2643,-1.31659 -0.34268,-1.9758 -0.0478,-0.40196 0,-0.83501 0,-1.24012 0,-0.93631 0,-1.87262 0,-2.80893 0,-1.71065 -0.10519,-3.46326 0,-5.17055 0.0756,-1.22775 0.0305,-0.28343 0.43574,-1.28725 0.23182,-0.57421 0.25956,-1.34918 0.43734,-1.93985 0.11804,-0.39221 0.26893,-0.77393 0.39061,-1.16503 0.0467,-0.15015 0.0452,-0.31641 0.11422,-0.45771 0.0798,-0.16348 0.26309,-0.26785 0.32391,-0.43933 0.092,-0.25929 0.009,-0.56544 0.12141,-0.81636 0.20723,-0.4609 0.58516,-0.82777 0.81916,-1.27566 0.36371,-0.69617 0.84076,-2.56721 0.91661,-3.37208 0.1301,-1.38058 0,-2.84968 0,-4.23837 0,-0.94971 0.0936,-1.94839 0,-2.89321 -0.0176,-0.17769 -0.0897,-0.34734 -0.10544,-0.5252 -0.0195,-0.22026 0.0363,-0.44525 0,-0.66339 -0.24276,-1.46058 -0.13894,0.15728 -0.54557,-1.17621 -0.0524,-0.17179 0.035,-0.36263 0,-0.53879 -0.0371,-0.18705 -0.15754,-0.34857 -0.21248,-0.53119 -0.0524,-0.17417 -0.0433,-0.36492 -0.10824,-0.53479 -0.0485,-0.12687 -0.16449,-0.21799 -0.22605,-0.33908 -0.26494,-0.52117 -0.42291,-1.1226 -0.62665,-1.66547 -0.20476,-0.5456 -0.25722,-0.35279 -0.53479,-0.95336 -0.091,-0.19688 -0.1093,-0.42315 -0.20649,-0.61706 -0.1323,-0.26399 -0.38211,-0.45712 -0.51481,-0.72091 -0.22086,-0.43901 -0.17926,-0.55507 -0.42616,-0.94975 -0.43423,-0.69418 -0.94429,-1.31778 -1.37551,-2.01015 -0.31728,-0.50944 -0.56452,-1.02838 -0.83074,-1.56003 -0.0897,-0.17925 -0.19836,-0.34881 -0.30953,-0.51562 -0.0535,-0.0802 -0.16883,-0.11493 -0.20449,-0.20449 -0.11771,-0.29565 -0.16879,-0.68481 -0.41057,-0.92659 -0.0869,-0.0869 -0.21985,-0.1176 -0.30674,-0.20449 -0.14939,-0.14939 -0.0711,-0.39973 -0.30234,-0.50683 -0.32033,-0.14838 -0.70465,2.01823 -0.75485,2.20545 -0.0493,0.18367 -0.14561,0.35143 -0.21208,0.5296 -0.34133,0.915 -0.35428,1.89198 -0.54317,2.8313 -0.1082,0.53802 -0.53481,1.03307 -0.63105,1.54525 -0.0647,0.34452 0.22349,0.71305 0.11263,1.04561 -0.0389,0.11658 -0.16563,0.19016 -0.20449,0.30674 -0.0284,0.0852 0.0189,0.39762 0,0.51122 -0.15213,0.91283 -0.10224,1.83802 -0.10224,2.7694"
       id="path17771"
       clip-path="url(#clipPath17843)" />
    <path
       style="fill:#000000;fill-opacity:1;stroke-width:0.264583"
       d="M 155.02386,182.52636 151.66735,170.5773"
       id="path17773"
       clip-path="url(#clipPath17839)" />
    <path
       style="fill:#000000;fill-opacity:1;stroke-width:0.264583"
       d="m 151.35662,170.16273 c 0.68534,1.25905 0.91888,2.69191 1.26328,4.06623 0.12244,0.48857 0.34473,0.94947 0.41737,1.45379 0.0344,0.23857 0.0414,0.94529 0.10225,1.12669 0.064,0.19068 0.22893,0.33347 0.31072,0.51722 0.17066,0.38334 0.0426,0.75444 0.20849,1.14306 0.0382,0.0895 0.17027,0.11613 0.20648,0.20648 0.096,0.23956 0.0849,1.16399 0.10425,1.38071 0.0319,0.35624 0.18285,0.69546 0.21127,1.052 0.0212,0.26542 -0.0398,0.53551 0,0.79879 0.14706,0.97336 0.27998,0.49476 0.34388,1.30482 0.0213,0.27034 -0.0363,0.54481 0,0.81356 0.0458,0.33906 0.20359,0.6572 0.24443,0.99689 0.10195,0.84791 0,1.79249 0,2.64997 0,0.12399 0.0999,1.75277 0,2.00256 -0.17729,0.44322 -0.89445,0.30674 -1.22334,0.30674 -0.789,0 -0.93543,0.0745 -1.70661,-0.25322 -0.78204,-0.33227 -2.38086,-1.48742 -2.8305,-2.20705 -0.2588,-0.41419 -0.11623,-1.35955 -0.11623,-1.80046 0,-0.36546 -0.0792,-0.99094 0,-1.34676 0.0341,-0.15302 0.16028,-0.27218 0.20969,-0.42096 0.17016,-0.51244 0.18078,-1.08897 0.3243,-1.60636 0.21072,-0.75961 0.58616,-1.47557 0.76524,-2.24978 0.0977,-0.42253 0,-0.99986 0,-1.43622 0,-0.85883 0,-1.71766 0,-2.57649 0,-0.35608 -0.0582,-0.77543 0,-1.12469 0.0177,-0.10631 0.0871,-0.20003 0.10225,-0.30674 0.029,-0.2047 -0.0404,-0.41749 0,-0.62026 0.0497,-0.24914 0.11736,-0.69947 0.20449,-0.91501 -0.15797,-0.35115 0.21851,-0.33312 0.30753,-0.51082 0.0902,-0.18013 0.008,-0.55685 0.10105,-0.71052 0.089,-0.14729 0.22144,-0.26523 0.31032,-0.41258 0.0738,-0.12238 -0.0784,-0.38783 0,-0.50563 0.33102,-0.49752 0.24203,0.22523 0.13939,-0.81596 z"
       id="path17783"
       clip-path="url(#clipPath17835)" />
    <path
       style="fill:#000000;fill-opacity:1;stroke-width:0.264583"
       d="m -112.7987,173.16284 c -0.48952,-0.43252 -0.91649,-0.94838 -1.46855,-1.29756 -0.0866,-0.0548 -5.71275,-0.21486 -6.39159,-0.28919 -3.76738,-0.41252 -7.45215,-1.56389 -11.21183,-1.93397 -1.78599,-0.17581 -3.5081,-0.25002 -5.29244,-0.64391 -0.84679,-0.18693 -1.7499,-0.62794 -2.60837,-0.87322 -0.0225,-0.006 -2.31972,-0.57865 -2.33048,-0.58403 -0.24625,-0.12313 -0.3379,-0.46067 -0.58403,-0.58403 -0.81756,-0.40978 -1.81855,-0.39707 -2.60273,-0.86758 -0.2338,-0.14028 -0.33451,-0.45645 -0.57838,-0.57838 -0.72537,-0.36269 -1.60021,-0.30798 -2.35985,-0.59194 -1.61207,-0.60261 -3.03147,-1.78769 -4.66322,-2.33161 -1.2062,-0.40207 -2.08046,-0.89599 -3.20371,-1.45726 -0.70623,-0.35289 -1.66677,-0.47319 -2.3429,-0.87887 -0.88932,-0.53359 -1.7874,-1.37208 -2.60273,-2.02434 -1.11992,-0.89594 -2.4625,-1.59199 -3.47595,-2.60838 -0.15398,-0.15442 -0.13867,-0.43065 -0.29258,-0.58516 -0.15212,-0.15271 -0.42537,-0.13737 -0.57838,-0.28919 -0.17971,-0.1783 -0.90297,-1.70181 -1.14886,-2.00966 -0.56004,-0.70115 -1.27841,-0.66287 -2.01418,-1.15338 -0.62392,-0.41594 -2.792,-2.38801 -3.35395,-2.55867 -0.18339,-0.0557 -0.38902,0.0464 -0.57499,0 -0.62346,-0.1554 -0.81521,-0.70618 -1.43918,-0.86418 -0.36029,-0.0912 -0.75493,0.0922 -1.11497,0 -0.75731,-0.19387 -1.54901,-0.42512 -2.31354,-0.57839 -0.28244,-0.0566 -0.59648,0.10637 -0.86418,0 -0.25017,-0.0994 -0.33127,-0.44922 -0.57161,-0.57047 -0.32463,-0.16378 -3.55067,-0.17572 -4.11759,-0.28919 -2.20518,-0.44139 -4.2176,-1.45092 -6.31478,-2.01418 -1.1426,-0.30688 -3.17695,-0.0436 -4.21248,0.28919 -0.91077,0.29271 -1.14376,1.98898 -1.96786,2.54625 -0.46543,0.31472 -1.12308,0.32406 -1.64026,0.53093 -1.60457,0.64183 -3.21961,1.39673 -4.93434,1.73967 -0.9627,0.19254 -1.92708,0.12839 -2.89192,0.28919 -0.21261,0.0354 -0.36701,0.24692 -0.57838,0.2892 -0.47263,0.0945 -0.97337,-0.0947 -1.44596,0 -1.11123,0.22277 -2.07099,0.93527 -3.16981,1.15676 -0.006,0.001 -1.1431,-0.001 -1.1466,0 -0.12787,0.0425 -0.15789,0.2435 -0.2858,0.28581 -0.58826,0.19454 -1.39932,0.1333 -2.00514,0.2858 -0.79438,0.19996 -0.46122,0.40388 -1.15677,0.86758 -0.45217,0.30144 -1.50698,0.26722 -2.02773,0.58064 -0.78999,0.47545 -1.38777,1.1449 -2.32483,1.45725 -0.43379,0.1446 -0.2892,-0.28919 -0.86758,0 -0.24387,0.12194 -0.36026,0.4148 -0.57838,0.57839 -0.77782,0.58336 -2.45758,1.44784 -3.37089,1.6798 -0.3711,0.0942 -0.92276,-0.0714 -1.26409,0 -0.20703,0.0433 -0.35977,0.23731 -0.56483,0.28919 -0.42792,0.10825 -1.00191,-0.0638 -1.43918,0 -0.51269,0.0748 -1.01123,0.2312 -1.5239,0.30613 -1.26894,0.18548 -4.22391,-0.38267 -5.17947,0 -0.40443,0.16196 -0.75598,0.44606 -1.1692,0.58404 -0.396,1.25357 -1.17888,0.10376 -1.73515,0.28919 -0.40898,0.13632 -0.73404,0.49384 -1.15677,0.57838 -0.28357,0.0567 -0.5898,-0.0805 -0.86757,0 -0.93537,0.27098 -1.74599,0.87789 -2.66938,1.18727 -0.42974,0.14398 -0.28372,-0.28797 -0.85741,0 -0.43076,0.21623 -0.72566,0.65202 -1.15676,0.86757 -0.17244,0.0862 -0.38559,0 -0.57839,0 -0.52491,0.31066 -1.11233,0.5342 -1.57474,0.93197 -0.28908,0.24868 -0.31134,0.74016 -0.62357,0.95908 -0.32543,0.22817 -0.78461,0.14963 -1.15676,0.28919 -1.0789,0.40459 -0.97194,0.77516 -1.73515,1.15677 -1.48506,0.74253 -3.22888,1.1806 -4.62368,2.02434 -0.42227,0.25543 -0.7306,0.69389 -1.18388,0.88904 -0.26977,0.11614 -0.59047,-0.0422 -0.88113,0 -0.39986,0.058 -0.78655,0.18655 -1.17485,0.29823 -0.79153,0.22765 -1.5216,0.64131 -2.31353,0.86757 -0.6033,0.17237 -1.40977,-0.10242 -2.02434,0 -1.15354,0.19226 -2.29709,0.41079 -3.47031,0.57839 -1.47634,0.2109 -2.9231,0.0529 -4.59205,0.29371 -1.05937,0.15285 -2.90585,-0.4476 -3.8589,0 -0.27028,0.12693 0.019,0.25521 -0.38182,0.38182 -0.45038,0.14223 -0.8019,-0.0298 -1.06866,0.52529 -0.13615,0.28333 0.18341,0.58886 -0.15136,0.80093 -0.29835,0.18898 -0.74568,0.0594 -0.96134,0.20672 -0.53488,0.36544 -0.84487,0.67288 -1.41433,0.86419 -0.25093,0.0843 -0.58452,-0.16164 -0.79415,0 -0.57393,0.4425 -3.17272,2.84862 -2.95743,3.45449 0.94641,2.66338 6.39339,4.9601 8.7503,5.7748 0.5048,0.17449 1.08381,0.10755 1.56683,0.3355 0.75776,0.3576 1.3549,0.99564 2.09326,1.39174 0.47521,0.25494 6.89868,3.156 7.28853,3.2952 0.99056,0.35371 2.06627,0.42406 3.06137,0.76478 1.4217,0.48678 2.74038,1.25056 4.17069,1.71143 26.57164,8.56181 -1.89688,-0.88549 12.20931,3.19467 1.88671,0.54572 3.71349,1.28264 5.58954,1.86393 2.35152,0.7286 4.77391,1.23298 7.09085,2.06501 4.36699,1.56822 8.40882,3.94575 12.74364,5.60083 5.5287,2.11091 11.37157,3.36581 16.83074,5.65054 2.0168,0.84405 3.71251,2.37751 5.76802,3.12236 2.89825,1.05024 6.01255,1.3767 8.97737,2.22091 4.36071,1.24167 14.96109,5.06115 21.27932,6.03914 4.54433,0.7034 9.12726,1.13051 13.68578,1.73515 2.47945,0.32886 4.93276,0.88591 7.42749,1.06526 4.16558,0.29947 8.35267,0 12.52901,0 2.82639,0 5.67056,0.31644 8.47919,0 1.17671,-0.13258 2.30055,-0.56534 3.46126,-0.79979 8.33332,-1.68327 1.88806,0.3185 11.35191,-3.84422 2.01191,-0.88495 4.18724,-1.43391 6.08094,-2.54964 1.823568,-1.07441 3.305563,-2.64432 4.964834,-3.95831 1.522106,-1.20537 3.326522,-2.15799 4.485862,-3.71544 0.373266,-0.50144 0.796711,-1.0057 0.965856,-1.6075 0.263081,-0.93601 0.223475,-3.93344 -0.29936,-4.84057 -0.454303,-0.78822 -1.234599,-1.34396 -1.755484,-2.08986 -0.285141,-0.40832 -0.405378,-0.9111 -0.645033,-1.34768 -0.618879,-1.12742 -2.48262,-3.52514 -3.422856,-4.33901 -0.240498,-0.20817 -0.631214,-0.1349 -0.909373,-0.28919 -0.635286,-0.35238 -1.204325,-0.8128 -1.807448,-1.21777 -1.778018,-1.19385 -3.571318,-3.00938 -4.946758,-4.65757 -0.5663,-0.67859 -1.49965,-1.57608 -1.7521,-2.33048 -0.0302,-0.0903 0,-0.19053 0,-0.2858 -0.0949,-0.38295 -0.10782,-0.79618 -0.28467,-1.14886 -0.43694,-0.87132 -1.40421,-2.11448 -2.03338,-2.90096 -0.41676,-0.52094 -1.19296,-1.32776 -1.7216,-1.73515 -1.30172,-1.00316 -2.61257,-1.07699 -3.25227,-2.86932 -0.2297,-0.64355 0.0542,-1.36577 0.10279,-2.04735 z"
       id="path17787"
       clip-path="url(#clipPath17831)" />
    <path
       style="fill:#000000;fill-opacity:1;stroke-width:0.264583"
       d="m 224.16286,196.90522 c 6.6626,-2.6859 12.84241,-6.44259 19.412,-9.31966 2.37361,-1.03948 4.74915,-2.09974 7.2185,-2.88513 0.5885,-0.18718 1.29121,0.25722 1.85264,0 1.47907,-0.67765 2.62607,-1.94031 4.05998,-2.70892 0.61127,-0.32765 6.80693,-2.54831 7.32017,-2.68858 2.93325,-0.80169 6.01319,-0.9999 8.93331,-1.84812 2.64629,-0.76867 5.12022,-1.75677 7.81723,-2.43101 1.1377,-0.28443 2.42138,-0.0539 3.4703,-0.57839 1.1149,-1.11491 0.9431,-1.18698 2.31351,-1.73515 4.19362,-1.67745 -0.19801,0.0396 2.89193,-0.57838 1.76215,-0.35243 3.84688,-1.70287 5.28679,-2.33839 4.24609,-1.87407 -1.41036,1.17509 4.77393,-1.19066 0.71713,-0.27433 1.23153,-0.93065 1.9159,-1.27877 2.02515,-1.03012 4.29356,-1.53486 6.39609,-2.32483 4.17405,-1.56827 8.20233,-4.69522 11.87268,-7.14846 1.21642,-0.81303 2.21866,-0.40383 3.4703,-1.15676 1.72434,-1.03728 1.54538,-1.35876 3.4884,-1.74645 0.75626,-0.1509 1.55731,0.15124 2.31352,0 1.58689,-0.31738 3.04019,-0.8394 4.62708,-1.15677 1.54816,-0.30963 3.6566,0 5.20544,0 4.28141,0 8.56279,0 12.8442,0 5.49317,0 11.37007,-0.67194 16.81379,0 2.40546,0.29691 4.67265,1.40209 7.01966,1.73515 4.69826,0.66671 10.7845,0.87256 15.28652,2.37002 0.81812,0.27212 1.49505,0.88567 2.31351,1.15677 1.04976,0.3477 4.23548,0.70367 5.4088,1.20195 0.64752,0.27498 1.11091,0.89151 1.75776,1.16806 1.97557,0.84465 4.4001,0.88845 6.37577,1.73515 0.63892,0.27383 1.11339,0.8459 1.73514,1.15677 2.25107,1.12553 1.45428,0.0449 4.04868,1.15677 1.09694,0.47011 4.21661,3.20836 4.66548,3.50419 4.3466,2.86447 9.52881,4.77855 13.51296,8.19226 3.36473,2.88302 7.42912,5.93743 10.10136,9.50041 1.15811,1.54414 1.69741,3.71231 2.89193,5.20545 0.51096,0.63872 1.22417,1.09643 1.73516,1.73515 1.49024,1.8628 0.74716,3.74063 1.15676,5.78384 0.0844,0.42071 0.47344,0.73393 0.57838,1.14998 0.24236,0.96091 0.24037,7.89027 0,8.36623 -3.9488,7.81926 -14.8816,11.42756 -21.90401,15.23906 -1.74263,0.94582 -3.39884,2.0492 -5.1648,2.95066 -3.06041,1.56221 -6.75817,2.02964 -9.78958,3.70753 -0.87003,0.48155 -1.52747,1.29063 -2.39035,1.78485 -1.69757,0.97228 -4.20865,1.06001 -5.87423,1.76904 -3.69062,1.57108 -2.90753,1.89802 -6.15209,2.44232 -7.69239,1.29044 -15.7226,0.63938 -23.48328,0.63938 -2.84975,0 -5.73437,0.44444 -8.54924,0 -5.11816,-0.8081 -10.04105,-2.56737 -15.08993,-3.73238 -4.90691,-1.13224 -10.00789,-1.5315 -14.77365,-3.15852 -4.20857,-1.4368 -7.82944,-4.2532 -11.93593,-5.96006 -2.95251,-1.22721 -6.15448,-1.75138 -9.17054,-2.81284 -6.3818,-2.24596 -12.16618,-5.26565 -18.3298,-7.90759 -6.07846,-2.60544 -12.38788,-4.68354 -18.59413,-6.88186 -2.40575,-0.85215 -4.79234,-1.77314 -7.10779,-2.84673 -2.50928,-1.16348 -5.33233,-3.48581 -8.19227,-3.82954 -1.2098,-0.1454 -2.46055,0.23822 -3.65556,0 -8.78874,-1.75195 4.20227,-0.95742 -5.46527,-1.82552 -1.22414,-0.10992 -2.46212,0.099 -3.6872,0 -9.31865,-0.75302 -0.12388,-0.71679 -10.48546,-1.42562 -1.70481,-0.11663 -3.44583,0.30939 -5.12638,0 -0.53629,-0.0987 -0.66903,-0.9129 -1.15676,-1.15677 -0.34488,-0.17244 -0.78269,0.0935 -1.15677,0 -2.96286,-0.74072 -2.41819,-0.84958 -5.65054,1.00087 z"
       id="path17823"
       clip-path="url(#clipPath17827)" />
  </g>
</svg>
