<?xml version="1.0" encoding="UTF-8" standalone="no"?>
<!-- Created with Inkscape (http://www.inkscape.org/) -->

<svg
   width="178.96953mm"
   height="51.838352mm"
   viewBox="0 0 178.96953 51.838352"
   version="1.1"
   id="svg5"
   xmlns="http://www.w3.org/2000/svg"
   xmlns:svg="http://www.w3.org/2000/svg">
  <defs
     id="defs2">
    <clipPath
       clipPathUnits="userSpaceOnUse"
       id="clipPath15446">
      <rect
         style="fill:#000000;fill-opacity:1;stroke-width:0.264583"
         id="rect15448"
         width="178.96953"
         height="51.838352"
         x="-5.7084823"
         y="121.32449" />
    </clipPath>
    <clipPath
       clipPathUnits="userSpaceOnUse"
       id="clipPath15450">
      <rect
         style="fill:#000000;fill-opacity:1;stroke-width:0.264583"
         id="rect15452"
         width="178.96953"
         height="51.838352"
         x="-5.7084823"
         y="121.32449" />
    </clipPath>
    <clipPath
       clipPathUnits="userSpaceOnUse"
       id="clipPath15454">
      <rect
         style="fill:#000000;fill-opacity:1;stroke-width:0.264583"
         id="rect15456"
         width="178.96953"
         height="51.838352"
         x="-5.7084823"
         y="121.32449" />
    </clipPath>
    <clipPath
       clipPathUnits="userSpaceOnUse"
       id="clipPath15458">
      <rect
         style="fill:#000000;fill-opacity:1;stroke-width:0.264583"
         id="rect15460"
         width="178.96953"
         height="51.838352"
         x="-5.7084823"
         y="121.32449" />
    </clipPath>
    <clipPath
       clipPathUnits="userSpaceOnUse"
       id="clipPath19220">
      <g
         id="g19224">
        <rect
           style="fill:#000000;fill-opacity:1;stroke-width:0.264583"
           id="rect19222"
           width="178.96953"
           height="51.838352"
           x="1.3452758e-07"
           y="-1.4404297e-06" />
      </g>
    </clipPath>
    <clipPath
       clipPathUnits="userSpaceOnUse"
       id="clipPath19226">
      <g
         id="g19230">
        <rect
           style="fill:#000000;fill-opacity:1;stroke-width:0.264583"
           id="rect19228"
           width="178.96953"
           height="51.838352"
           x="1.3452758e-07"
           y="-1.4404297e-06" />
      </g>
    </clipPath>
    <clipPath
       clipPathUnits="userSpaceOnUse"
       id="clipPath19232">
      <g
         id="g19236">
        <rect
           style="fill:#000000;fill-opacity:1;stroke-width:0.264583"
           id="rect19234"
           width="178.96953"
           height="51.838352"
           x="1.3452758e-07"
           y="-1.4404297e-06" />
      </g>
    </clipPath>
    <clipPath
       clipPathUnits="userSpaceOnUse"
       id="clipPath19238">
      <g
         id="g19242">
        <rect
           style="fill:#000000;fill-opacity:1;stroke-width:0.264583"
           id="rect19240"
           width="178.96953"
           height="51.838352"
           x="1.3452758e-07"
           y="-1.4404297e-06" />
      </g>
    </clipPath>
    <clipPath
       clipPathUnits="userSpaceOnUse"
       id="clipPath19244">
      <g
         id="g19248">
        <rect
           style="fill:#000000;fill-opacity:1;stroke-width:0.264583"
           id="rect19246"
           width="178.96953"
           height="51.838352"
           x="1.3452758e-07"
           y="-1.4404297e-06" />
      </g>
    </clipPath>
    <clipPath
       clipPathUnits="userSpaceOnUse"
       id="clipPath19250">
      <g
         id="g19254">
        <rect
           style="fill:#000000;fill-opacity:1;stroke-width:0.264583"
           id="rect19252"
           width="178.96953"
           height="51.838352"
           x="1.3452758e-07"
           y="-1.4404297e-06" />
      </g>
    </clipPath>
    <clipPath
       clipPathUnits="userSpaceOnUse"
       id="clipPath19320">
      <rect
         style="fill:#000000;stroke-width:0.264583"
         id="rect19322"
         width="178.96953"
         height="51.838352"
         x="0"
         y="0" />
    </clipPath>
    <clipPath
       clipPathUnits="userSpaceOnUse"
       id="clipPath19324">
      <rect
         style="fill:#000000;stroke-width:0.264583"
         id="rect19326"
         width="178.96953"
         height="51.838352"
         x="0"
         y="0" />
    </clipPath>
    <clipPath
       clipPathUnits="userSpaceOnUse"
       id="clipPath19328">
      <rect
         style="fill:#000000;stroke-width:0.264583"
         id="rect19330"
         width="178.96953"
         height="51.838352"
         x="-5.7084823"
         y="121.32449" />
    </clipPath>
    <clipPath
       clipPathUnits="userSpaceOnUse"
       id="clipPath19332">
      <rect
         style="fill:#000000;stroke-width:0.264583"
         id="rect19334"
         width="178.96953"
         height="51.838352"
         x="-5.7084823"
         y="121.32449" />
    </clipPath>
    <clipPath
       clipPathUnits="userSpaceOnUse"
       id="clipPath19336">
      <rect
         style="fill:#000000;stroke-width:0.264583"
         id="rect19338"
         width="178.96953"
         height="51.838352"
         x="-5.7084823"
         y="121.32449" />
    </clipPath>
    <clipPath
       clipPathUnits="userSpaceOnUse"
       id="clipPath19340">
      <rect
         style="fill:#000000;stroke-width:0.264583"
         id="rect19342"
         width="178.96953"
         height="51.838352"
         x="-5.7084823"
         y="121.32449" />
    </clipPath>
    <clipPath
       clipPathUnits="userSpaceOnUse"
       id="clipPath19344">
      <rect
         style="fill:#000000;stroke-width:0.264583"
         id="rect19346"
         width="178.96953"
         height="51.838352"
         x="0"
         y="0" />
    </clipPath>
    <clipPath
       clipPathUnits="userSpaceOnUse"
       id="clipPath19348">
      <rect
         style="fill:#000000;stroke-width:0.264583"
         id="rect19350"
         width="178.96953"
         height="51.838352"
         x="0"
         y="0" />
    </clipPath>
    <clipPath
       clipPathUnits="userSpaceOnUse"
       id="clipPath19352">
      <rect
         style="fill:#000000;stroke-width:0.264583"
         id="rect19354"
         width="178.96953"
         height="51.838352"
         x="0"
         y="0" />
    </clipPath>
    <clipPath
       clipPathUnits="userSpaceOnUse"
       id="clipPath19356">
      <rect
         style="fill:#000000;stroke-width:0.264583"
         id="rect19358"
         width="178.96953"
         height="51.838352"
         x="0"
         y="0" />
    </clipPath>
    <clipPath
       clipPathUnits="userSpaceOnUse"
       id="clipPath19360">
      <rect
         style="fill:#000000;stroke-width:0.264583"
         id="rect19362"
         width="178.96953"
         height="51.838352"
         x="0"
         y="0" />
    </clipPath>
  </defs>
  <path
     style="fill:#000000;fill-opacity:1;stroke-width:0.264583"
     d="m 55.335525,45.92013 c 0.276781,0.1117 0.718643,0.61188 0.830339,0.33509 0.193014,-0.47826 -1.02218,-0.27062 -1.53367,-0.20448 -0.343231,0.0444 -0.515369,-0.12885 -0.817957,-0.2045 -0.234161,-0.0585 -0.484185,0.0264 -0.724101,0 -0.316563,-0.0349 -0.616646,-0.16756 -0.932585,-0.20768 -0.583533,-0.0741 -1.419786,0.0132 -1.990576,-0.10224 -0.500137,-0.10117 -0.976173,-0.35669 -1.496529,-0.43095 -0.240794,-0.0344 -0.481126,-0.0722 -0.722503,-0.10224 -0.46781,-0.0581 -1.010801,0.11096 -1.466971,0 -0.163259,-0.0397 -0.280554,-0.20098 -0.444527,-0.23764 -0.20112,-0.045 -0.41379,0.0257 -0.61826,0 -0.07632,-0.01 -0.130236,-0.091 -0.206086,-0.10385 -0.234244,-0.0523 -0.480388,0.0392 -0.715714,0 -0.408826,-0.0681 -0.818936,-0.15319 -1.235324,-0.20448 -0.274571,-0.0338 -0.560287,0.0618 -0.829939,0 -0.191643,-0.0439 -0.35713,-0.17039 -0.547569,-0.21927 -0.398031,-0.10216 -0.941075,0.0407 -1.342763,0 -0.144044,-0.0146 -0.278069,-0.0847 -0.421359,-0.10544 -0.468829,-0.0679 -1.024136,0 -1.493333,0 -0.948025,0 -1.896054,0 -2.84408,0 -1.001226,0 -1.987103,0.0752 -2.968694,0.21846 -0.236069,0.0345 -0.47857,-0.0261 -0.715712,0 -0.327473,-0.009 -0.619644,0.17124 -0.937776,0.20649 -0.173606,0.0192 -0.35245,-0.0328 -0.524005,0 -0.248179,0.0475 -0.471426,0.19108 -0.719707,0.23804 -0.176465,0.0334 -0.360065,-0.0177 -0.538782,0 -0.653155,0.0648 -1.31345,0.12063 -1.967013,0.21967 -0.22619,0.0377 -0.45238,0.0754 -0.67857,0.11303 -0.183454,0.0735 -0.356728,0.18095 -0.550364,0.22046 -0.593021,0.12101 -1.173908,0.10544 -1.769313,0.10544 -1.312678,0 -2.690467,0.13084 -3.991939,0 -0.778724,-0.0783 -1.554515,-0.24331 -2.330461,-0.33389 -0.372809,-0.0435 -0.759422,0.0366 -1.133079,0 -0.44637,-0.0437 -0.897809,-0.0404 -1.341164,-0.10824 -0.301308,-0.0461 -0.587292,-0.16814 -0.887852,-0.21887 -0.73292,-0.12369 -2.016544,0 -2.809334,0 -0.889453,0 -1.691909,0.24848 -2.5657038,0.34149 -0.503415,0.0536 -0.8381751,-0.0877 -1.3711181,0 -0.2022331,0.0333 -0.3683622,0.19056 -0.5687364,0.23364 -0.1688138,0.0363 -0.3462182,-0.0174 -0.5180135,0 -0.1788498,0.0181 -0.3497405,0.0899 -0.528797,0.10584 -0.5572657,0.0495 -0.7522983,-0.0201 -1.2273364,0.21647 -0.088429,0.044 -0.2005217,-0.024 -0.29635,0 -0.3590135,0.0898 -0.078601,0.0795 -0.3043379,0.30554 -0.4118923,0.41243 -0.050901,-0.0254 -0.3027403,0.10224 -0.3156378,0.16004 -0.5331547,0.6151 -0.8199549,0.81996 -0.3024867,0.21606 -0.71504,0.31847 -1.0304355,0.51522 -0.2266429,0.14137 -0.3838556,0.38013 -0.6154653,0.51322 -0.1591564,0.0914 -0.346729,0.12342 -0.5108244,0.20569 -0.1287579,0.0645 -0.1820304,0.23143 -0.3055361,0.30553 -0.092416,0.0555 -0.2103368,0.0541 -0.3067341,0.10224 -0.1703932,0.0852 -0.5416293,0.46704 -0.6166638,0.61667 -0.065641,0.1309 -0.00148,1.04616 0,1.06318 0.049046,0.56688 0.095878,0.74707 0.4417293,1.19858 0.7161911,0.935 0.94742,1.2109 2.1056028,1.66348 0.5566853,0.21753 1.1561783,0.30413 1.7297735,0.47208 0.5172783,0.15147 3.1308609,0.9748 3.93163,1.19259 2.8348449,0.771 5.6728009,1.07276 8.5981439,1.41066 1.437058,0.16599 2.871393,0.37669 4.315847,0.45571 1.33637,0.0731 2.676735,0 4.015103,0 3.588285,0 7.176568,0 10.764855,0 2.816699,0 5.664621,-0.10228 8.479123,0 0.494306,0.018 0.982901,0.11634 1.476558,0.14737 0.633653,0.0398 1.269807,0 1.904709,0 0.51322,0 1.031118,0.0691 1.539663,0 1.009248,-0.13719 2.314803,-0.51403 3.236286,-0.94456 0.352615,-0.16475 0.689784,-0.36124 1.042016,-0.5268 0.246356,-0.1158 0.558424,-0.12858 0.750861,-0.32112 0.496766,-0.49702 1.229643,-1.40604 1.52848,-2.06526 0.188084,-0.41491 0.0983,-0.95052 0.311925,-1.35235 0.0952,-0.17907 0.285612,-0.29789 0.372234,-0.48126 0.09866,-0.20885 -0.0031,-2.756 -0.102243,-3.05337 -0.07034,-0.21101 -0.352893,-0.96467 -0.513622,-1.12509 -0.11153,-0.11132 -0.393258,-0.15021 -0.46609,-0.29435 -0.107265,-0.21229 -0.09676,-0.46595 -0.156565,-0.69615"
     id="path1067"
     clip-path="url(#clipPath19360)" />
  <path
     style="fill:#000000;fill-opacity:1;stroke-width:0.264583"
     d="m 63.020658,46.76365 c 0.956413,0.23857 1.8973,0.55148 2.869242,0.71572 1.297591,0.21925 5.898155,0.36391 7.413942,-0.19371 0.219607,-0.0808 0.376793,-0.29123 0.597892,-0.36784 0.71968,-0.24936 1.845334,-0.24709 2.594063,-0.38462 0.928028,-0.17046 1.83406,-0.43185 2.77858,-0.51881 0.741307,-0.0682 1.494358,-0.0934 2.234208,-0.22765 0.293557,-0.0533 0.565472,-0.2025 0.860692,-0.24563 0.458695,-0.067 0.927126,0 1.390689,0 1.225339,0 2.45068,0 3.676018,0 1.492268,0 2.959748,-0.11536 4.436861,-0.25202 0.691589,-0.064 0.67351,0.11413 1.512105,0 0.30226,-0.0411 0.577014,-0.21511 0.879864,-0.25162 0.399563,-0.0482 0.805942,0.0288 1.207367,0 0.28865,-0.0207 0.568492,-0.11073 0.855502,-0.14777 0.751226,-0.0969 1.318516,-0.0855 2.049287,-0.24723 0.283022,-0.0626 0.549024,-0.19172 0.833136,-0.24922 1.161394,-0.23503 2.383214,-0.20684 3.551004,-0.3926 0.38617,-0.0614 0.75441,-0.21608 1.14187,-0.26879 0.7229,-0.0984 2.8165,-0.0473 3.5534,0 1.17925,0.0756 2.44039,0.21015 3.60413,0.40858 0.37184,0.0634 0.7267,0.20934 1.09913,0.26919 0.68507,0.11009 1.37582,0.18585 2.06726,0.24363 1.19335,0.0997 0.17871,-0.17695 1.68145,0.12141 0.29259,0.0581 0.56416,0.20727 0.85949,0.24922 0.29525,0.042 0.59885,-0.0379 0.89464,0 0.41008,0.0526 0.80289,0.20126 1.21057,0.26999 0.40208,0.0678 0.81322,0.0715 1.21535,0.13899 0.43965,0.0738 0.86693,0.21202 1.30682,0.28437 2.77752,0.45682 5.66708,0.28677 8.46993,0.28677 3.12206,0 6.24412,0 9.36618,0 1.27553,0 2.55106,0 3.82659,0 0.29276,0 0.59149,-0.0588 0.87827,0 0.35772,0.0734 0.66763,0.30897 1.02364,0.3902 0.22312,0.0509 0.45836,-0.0173 0.68656,0 0.34774,0.0263 0.69236,0.0845 1.03803,0.13061 0.5194,0.0693 1.03187,0.1957 1.55444,0.23444 0.2727,0.0202 0.55044,-0.0439 0.82035,0 0.25358,0.0412 0.47977,0.1873 0.7285,0.25162 0.77259,0.19978 1.5808,0.19169 2.3676,0.25162 0.35026,0.0267 0.69726,0.0887 1.04761,0.11422 0.17314,0.0126 0.35023,-0.0323 0.52081,0 0.23579,0.0446 0.44569,0.19173 0.68296,0.22766 0.74003,0.11203 1.49693,0 2.24539,0 1.00248,0 2.00496,0 3.00744,0 0.83307,0 1.55683,-0.27786 2.39835,-0.34109 1.21521,-0.0913 2.53963,-0.046 3.73992,0.10385 0.13739,0.0171 0.28007,-0.0294 0.41537,0 0.57709,0.12529 1.13578,0.42386 1.7146,0.55276 0.0998,0.0222 0.20981,-0.0326 0.30673,0 0.27434,0.0922 0.52703,0.33834 0.82395,0.41257 0.0661,0.0165 0.13983,-0.0216 0.20449,0 0.32898,0.10966 0.64522,0.43211 1.01207,0.51122 0.31986,0.069 0.68854,-0.0533 0.99968,0.10225 0.2536,-0.0588 0.2554,0.22895 0.40698,0.30474 0.14509,0.0725 0.74481,0.26102 0.78641,0.27438 0.64263,0.20643 1.3122,0.32052 1.95702,0.52001 0.22205,0.0687 0.53557,0.23637 0.78641,0.28716 0.3451,0.0699 0.81186,-0.0128 1.1207,0.20649 0.15153,0.10757 0.25181,0.2748 0.3942,0.3942 0.56687,0.47538 1.7029,0.73341 1.99777,1.47257 0.0529,0.13259 0.0589,0.28002 0.10424,0.41536 0.0989,0.29494 0.19625,0.70749 0.10424,1.02924 -0.0735,0.25712 -0.79414,0.89799 -0.81636,0.9202 -0.26679,0.2668 -0.48491,0.59343 -0.80039,0.80039 -1.28883,0.84549 -3.19861,1.14436 -4.69487,1.39189 -1.15031,0.19029 -2.28873,0.45889 -3.44636,0.59789 -3.08137,0.36997 -3.66298,0.11711 -6.81765,0.20928 -12.44758,0.36367 2.93567,-0.016 -7.59567,0.66579 -1.13111,0.0732 -2.26695,0 -3.40043,0 -1.30309,0 -2.60618,0 -3.90927,0 -6.12044,0 -12.24088,0 -18.36132,0 -2.99585,0 -5.9917,0 -8.98755,0 -1.00022,0 -2.00277,0.0684 -3.00064,0 -0.61833,-0.0424 -1.21561,-0.24677 -1.82963,-0.3311 -0.57067,-0.0784 -1.15043,-0.0773 -1.72098,-0.15656 -0.5674,-0.0788 -1.12603,-0.21141 -1.68904,-0.31712 -0.57672,-0.0521 -1.15567,-0.0836 -1.73017,-0.15616 -1.58159,-0.19981 -3.81961,-0.66363 -5.34428,-0.75246 -1.28055,-0.0746 -2.56544,0 -3.84816,0 -2.387843,0 -4.777115,0.0827 -7.163524,0 -0.352317,-0.0122 -0.697138,-0.10661 -1.043215,-0.17374 -1.158063,-0.2246 -2.302439,-0.52438 -3.468733,-0.70133 -3.272843,-0.26607 -1.610511,-0.0718 -4.645347,-0.53319 -0.778148,-0.11832 -1.553295,-0.25909 -2.334856,-0.35227 -1.864,-0.22221 -1.591257,0.0208 -3.05536,-0.43893 C 78.85285,54.40461 78.502304,54.20974 78.121328,54.1089 77.823095,54.03 77.501097,54.0695 77.20392,53.98669 c -1.918986,-0.82858 0.05623,-0.0574 -1.566821,-0.49485 -0.734951,-0.1981 -1.224867,-0.81419 -1.907103,-1.13468 -0.254963,-0.11977 -0.54574,-0.14154 -0.813165,-0.23005 -1.137661,-0.37655 -2.271109,-0.74967 -3.424002,-1.08316 -0.669285,-0.1936 -1.943291,-0.46676 -2.558116,-0.56514 -0.389745,-0.0624 -1.889718,-0.18665 -2.329662,-0.27838 -0.0917,-0.0191 -1.827339,-0.57727 -1.960223,-0.657 -0.212231,-0.12734 -0.387827,-0.3984 -0.613469,-0.51122 -0.254656,-0.12733 0.09863,0.29995 -0.306734,-0.10225 -0.04243,-0.0421 0,-0.11955 0,-0.17932 0,-0.32015 0.437698,-0.94128 0.715714,-1.09874 0.160674,-0.091 0.480473,-0.14638 0.554358,-0.38341 0.05014,-0.16087 0.0173,-0.33656 0.02596,-0.50484 z"
     id="path1069"
     clip-path="url(#clipPath19356)" />
  <path
     style="fill:#000000;fill-opacity:1;stroke-width:0.264583"
     d="m 46.484559,49.71757 c 4.852633,1.12362 9.654463,2.49516 14.557902,3.37088 1.41647,0.25297 2.877764,0 4.316645,0 1.867831,0 3.73566,0 5.603491,0 5.925802,0 11.851606,0 17.777407,0 1.932133,0 3.864266,0 5.796399,0 0.291584,0 0.925521,0.044 1.004075,-0.37503 0.05164,-0.2755 0.08343,-1.68408 0,-1.87875 -0.428903,-1.00077 -3.560683,-0.6582 -4.26153,-0.6582 -3.534767,0 -7.069531,0 -10.604298,0 -1.463244,0 -2.92649,0 -4.389734,0 -0.652881,0 -1.352304,0.0515 -2.004158,0 -0.503108,-0.0397 -1.176002,-0.16954 -1.660279,-0.3299 -0.156226,-0.0517 -0.283996,-0.17608 -0.443325,-0.21727 -0.260485,-0.0673 -0.535342,-0.058 -0.800386,-0.10424 -0.399029,-0.0696 -0.788694,-0.1927 -1.190591,-0.24323 -0.951248,-0.11959 -0.520144,0.15181 -1.42304,-0.11423 -0.151971,-0.0448 -0.275537,-0.16092 -0.425754,-0.21128 -0.293574,-0.0984 -0.716219,0.0389 -1.022448,0 -0.589759,-0.075 -0.892794,-0.22854 -1.450996,-0.41616 -0.190503,-0.064 -0.635818,0 -0.818756,0 -0.542324,0 -1.115615,-0.0637 -1.653889,0 -1.430883,0.16931 0.858049,0.11422 -1.08076,0.11422 -0.744979,0 -1.446114,0.0533 -2.189075,0.10544 -0.220988,0.0155 -0.449445,-0.0528 -0.664591,0 -0.318153,0.0781 -0.585999,0.30723 -0.904226,0.38502 -0.516329,0.1262 -1.345187,0 -1.878349,0 -1.349417,0 -2.698835,0 -4.048252,0 -0.292782,0 -0.519036,-0.15727 -0.802383,-0.20449 -0.439859,-0.0733 -0.895702,-0.04 -1.335572,-0.10225 -0.625607,-0.0886 0.0117,-0.1155 -0.61227,-0.20449 -0.473299,-0.0675 -1.923809,-0.0745 -2.369999,0 -0.209762,0.035 -2.308892,0.72316 -0.901042,0.55636"
     id="path1071"
     clip-path="url(#clipPath19352)" />
  <path
     style="fill:#000000;fill-opacity:1;stroke-width:0.264583"
     d="m 39.206816,50.45671 c 0.206886,-0.10127 0.401477,-0.37463 0.620657,-0.3038 12.35337,3.99175 3.503491,2.68149 12.721884,3.424 1.516211,0.12212 3.027003,0.31407 4.545499,0.40339 1.873377,0.11019 3.753234,0 5.629849,0 4.219461,0 8.43892,0 12.658381,0 7.346445,0 14.692889,0 22.039334,0 0.657534,0 1.317559,-0.0572 1.972604,0 0.516411,0.0451 1.013626,0.21958 1.524886,0.30513 0.35658,0.0597 0.71784,0.0868 1.07676,0.1302 0.64929,0.10611 1.29905,0.20933 1.94785,0.31832 2.07911,0.34926 4.26355,0.54954 6.31321,1.01725 0.50695,0.11569 0.99582,0.29982 1.49373,0.44972 0.75219,0.17267 1.50368,0.34843 2.25657,0.51802 0.4328,0.0975 0.86103,0.22206 1.30043,0.28317 0.54653,0.076 1.1255,-0.0772 1.67186,0 0.27555,0.0389 0.55625,0.1606 0.81956,0.20449 0.10913,0.0182 0.83442,-0.10706 0.90582,0.0879 0.0234,0.0638 -0.0703,0.11778 -0.0911,0.18252 -0.0487,0.152 -0.0581,0.31584 -0.11623,0.4645 -0.16727,0.42809 -0.4043,0.82772 -0.55795,1.26089 -0.45759,1.29003 -0.002,0.96465 -0.84312,2.22981 -0.94848,1.42644 -3.07859,1.44781 -4.47201,1.75853 -0.94291,0.21026 -1.88513,0.43703 -2.84288,0.56354 -0.6665,0.088 -6.46673,0.38722 -6.6519,0.39181 -2.73301,0.0677 -5.467695,0 -8.201545,0 -3.899011,0 -7.798025,0 -11.697038,0 -2.35616,0 -7.081613,0.0926 -9.586243,-0.22606 -1.710717,-0.21766 -3.372007,-0.74625 -5.082284,-0.96733 -14.651016,-1.89385 9.773039,2.32228 -9.953286,-1.30682 -1.128257,-0.20756 -2.247884,-0.47311 -3.386458,-0.61346 -1.101732,-0.13582 -2.222174,-0.0734 -3.323354,-0.21368 -1.849557,-0.23553 -2.867927,-0.58576 -4.543102,-1.05799 -0.318588,-0.0898 -1.121204,-0.2723 -1.488538,-0.47608 -0.153927,-0.0854 -0.271187,-0.22688 -0.422558,-0.31672 -2.056826,-1.22075 1.0415,0.8571 -1.837611,-1.06079 -0.308761,-0.20568 -0.641733,-0.38644 -0.905026,-0.64781 -0.673827,-0.66891 -1.848469,-2.92847 -2.219031,-3.88091 -0.133728,-0.34372 0.02244,-0.86375 -0.102243,-1.23732 -0.05771,-0.1729 -0.109386,-0.35141 -0.203292,-0.50763 -0.04957,-0.0825 -0.161267,-0.11794 -0.204089,-0.20409 -0.03064,-0.0616 0.02164,-0.14115 0,-0.20649 -0.02358,-0.0711 -0.216011,-0.21662 -0.27159,-0.27198 -0.165423,-0.16479 -0.330962,-0.32946 -0.496446,-0.49419 z"
     id="path1073"
     clip-path="url(#clipPath19348)" />
  <path
     style="fill:#000000;fill-opacity:1;stroke-width:0.264583"
     d="m 39.827473,50.15291 c 2.987863,0.0847 5.983142,0.0273 8.963592,0.25401 2.238446,0.1703 4.446314,0.62359 6.669471,0.93538 2.454806,0.27971 4.90053,0.65591 7.364417,0.83913 1.303086,0.0969 2.613367,0 3.920048,0 2.168308,0 4.336616,0 6.504924,0 6.256632,0 12.513265,0 18.769899,0 1.839741,0 3.679478,0 5.519219,0 0.643025,0 1.288529,0.0564 1.929072,0 0.617255,-0.0544 1.214895,-0.25005 1.829225,-0.3311 0.63835,-0.0842 1.29003,-0.0554 1.92467,-0.16415 5.8368,-0.99998 -0.96355,-0.26896 3.60533,-0.52161 0.31942,-0.0177 1.88195,-0.26354 2.17709,-0.11462 0.46099,0.23259 0.77179,1.06151 0.8547,1.51489 0.0328,0.17955 0,0.36505 0,0.54757 0,0.31286 0.094,0.64016 0,0.93858 -0.47712,1.51516 -2.61609,2.3689 -3.84576,2.8277 -2.79248,1.04192 -6.303979,1.18116 -9.253943,1.5181 -1.314096,0.15009 -2.623241,0.36111 -3.943612,0.43853 -1.176189,0.069 -2.356421,0 -3.534632,0 -1.400276,0 -2.800549,0 -4.200821,0 -1.003943,0 -2.007886,0 -3.011829,0 -0.673643,0 -1.352574,0.0842 -2.02093,0 -0.761201,-0.0959 -1.486548,-0.383 -2.238203,-0.53678 -2.464776,-0.50429 -4.985816,-0.6634 -7.463467,-1.08795 -1.291233,-0.22125 -2.566289,-0.5336 -3.860538,-0.73648 -0.900168,-0.14111 -1.84699,-0.0213 -2.718271,-0.28796 -0.256707,-0.0786 -0.476364,-0.2483 -0.720905,-0.35906 -0.916821,-0.41526 -1.687674,-0.98536 -2.577687,-1.45659 -0.417738,-0.22117 -0.877827,-0.35528 -1.295633,-0.57632 -1.129051,-0.59734 -2.14177,-1.47202 -3.386857,-1.8472 -1.894459,-0.57084 -4.013346,-0.98049 -5.955358,-1.23452 -0.493514,-0.0646 -3.006495,-0.20246 -3.725143,-0.3311 -0.473189,-0.0847 -0.90886,-0.34138 -1.386295,-0.3974 -0.80545,-0.0945 -1.621171,-0.0358 -2.426716,-0.11302 -0.518117,-0.0497 -1.209601,-0.25866 -1.728573,-0.10225 -0.265115,0.0799 -0.49099,0.25615 -0.736484,0.38422 z"
     id="path1075"
     clip-path="url(#clipPath19344)" />
  <rect
     style="fill:#000000;fill-opacity:1;stroke-width:0.264583"
     id="rect5705"
     width="20.677402"
     height="11.54514"
     x="-8.6032867"
     y="171.7812"
     clip-path="url(#clipPath19340)"
     transform="translate(5.7084824,-121.32449)" />
  <rect
     style="fill:#000000;fill-opacity:1;stroke-width:0.264583"
     id="rect5707"
     width="26.116026"
     height="2.4537983"
     x="147.14502"
     y="173.16284"
     clip-path="url(#clipPath19336)"
     transform="translate(5.7084824,-121.32449)" />
  <path
     style="fill:#000000;fill-opacity:1;stroke-width:0.264583"
     d="m 173.01569,173.72998 c -0.25826,-0.26156 -0.60548,-0.45841 -0.77478,-0.78467 -0.0526,-0.10128 0.16136,-0.16136 0.24204,-0.24204 0.1033,-0.10331 0.20661,-0.20662 0.30992,-0.30992 0.43001,-0.43001 0.88652,-0.77002 1.20737,-1.20737 0.17116,-0.23331 0.0388,-0.46251 0.2001,-0.70453 0.21142,-0.31713 0.30673,-0.19812 0.30673,-0.64524"
     id="path5760"
     clip-path="url(#clipPath19332)"
     transform="translate(5.7084824,-121.32449)" />
  <path
     style="fill:#000000;fill-opacity:1;stroke-width:0.264583"
     d="m 172.24091,172.94531 c -0.0913,-0.0547 -0.27914,-0.0578 -0.27398,-0.16415 0.01,-0.1985 0.21786,-0.33348 0.30673,-0.51123 0.0482,-0.0964 0.0424,-0.21713 0.10225,-0.30673 0.10797,-0.16154 0.32507,-0.23849 0.41217,-0.41218 0.0481,-0.096 0.0377,-0.21967 0.10225,-0.30553 0.0455,-0.0605 0.13552,-0.0674 0.20329,-0.10105 0.0682,-0.0341 0.15876,-0.0413 0.20449,-0.10224 0.15277,-0.2037 0.0837,-0.41616 0.10224,-0.40219 0.2162,0.16236 0.39993,0.36398 0.59989,0.54597"
     id="path5762"
     clip-path="url(#clipPath19328)"
     transform="translate(5.7084824,-121.32449)" />
  <path
     style="fill:#000000;stroke-width:0.264583"
     d="m 65.863937,48.540159 c -0.282096,-0.136258 -0.577003,-0.248677 -0.846288,-0.408774 -0.254558,-0.151341 -0.587459,-0.547507 -0.8212,-0.703691 -0.158433,-0.105859 -0.449406,-0.14588 -0.582047,-0.235021 -0.0898,-0.06035 -0.139382,-0.169664 -0.229515,-0.229513 -0.0177,-0.01175 -0.203605,0.01101 -0.224922,0 -0.333399,-0.172143 -0.69877,-0.194024 -0.998387,-0.350239 -0.118195,-0.06162 -0.336341,0.05928 -0.454898,0 -0.09909,-0.04955 -0.143288,-0.172898 -0.235022,-0.235022 -0.359754,-0.243644 -0.86529,-0.01288 -1.261409,-0.112003 -0.396562,-0.09924 -0.768802,-0.153578 -1.169143,-0.233646 -0.259321,-0.05186 -0.569132,0.07241 -0.822579,0 -0.168436,-0.04812 -0.303858,-0.179626 -0.470046,-0.235021 -0.635119,-0.211707 -1.785559,-0.239837 -2.474161,-0.35483 -0.351229,-0.05865 -0.477599,-0.266036 -0.822579,-0.352534 -0.571494,-0.143293 -1.205835,0.02357 -1.755322,-0.117509 -0.681662,-0.175033 -1.369841,-0.117512 -2.081691,-0.117512 -0.364014,0 -1.085922,-0.129236 -1.410134,0 -0.743398,0.296328 -1.284513,0.813059 -1.890279,1.297672 -0.146621,0.117298 -0.413483,0.353997 -0.587555,0.470043 -0.261763,0.174512 -0.919723,0.26474 -1.009861,0.668346 -0.03967,0.177641 1.33396,0.417203 1.47761,0.433781 1.259134,0.145326 -0.06964,-0.214786 1.375706,0.124397 0.287872,0.06756 0.558782,0.202827 0.850123,0.253383 0.200353,0.03477 0.408029,-0.02323 0.610047,0 0.595495,0.06847 1.216414,0.199674 1.798013,0.365845 0.553815,0.158234 1.107821,0.314619 1.662139,0.472342 0.331893,0.09443 0.62702,0.311042 0.967173,0.369057 0.283412,0.04834 0.57612,-0.02524 0.862513,0 0.473498,0.04173 0.928637,0.216591 1.401874,0.261189 0.357833,0.03372 0.72241,-0.05055 1.078256,0 0.526561,0.07481 0.238181,0.207928 0.837726,0.360336 0.867164,0.220437 0.153972,-0.11022 0.705067,0 0.925595,0.185118 2.60716,0.235548 3.549203,0.117512 0.35156,-0.04405 0.636516,-0.230222 0.957533,-0.359421 0.164285,-0.06612 0.424407,0.07813 0.58067,0 0.04722,-0.0236 0.06461,-0.08873 0.112003,-0.112003 0.07026,-0.03449 0.951715,-0.07084 1.030978,-0.235022 0.123632,-0.256082 0.05729,-0.639291 0.290404,-0.802142 0.665909,-0.465196 1.124032,0.05735 1.450997,0.41616"
     id="path19264"
     clip-path="url(#clipPath19324)" />
  <path
     style="fill:#000000;stroke-width:0.264583"
     d="m 180.21555,48.511719 c -0.45421,0.07994 -0.93871,0.05818 -1.36262,0.239813 -0.34148,0.14632 -1.05768,1.492094 -1.30272,1.818669 -0.11357,0.151363 -0.27954,0.25663 -0.40165,0.40119 -0.0911,0.107892 -0.12652,0.26212 -0.23502,0.352534 -0.6368,0.530664 -0.33096,-0.10096 -0.82763,0.593066 -0.10194,0.142454 -0.13768,0.324405 -0.23502,0.470043 -0.32423,0.485087 -0.67509,0.951896 -1.01996,1.422529 -0.19317,0.263613 -0.54391,0.431922 -0.71104,0.711034 -0.0918,0.153405 -0.13356,0.336068 -0.24007,0.479684 -0.005,0.0065 -0.69993,0.466294 -0.70185,0.468209 -0.14087,0.140319 -0.0186,0.41233 -0.11751,0.584801 -0.0832,0.145095 -0.26875,0.211407 -0.35483,0.35483 -0.0267,0.04456 -0.17173,0.754565 -0.23502,0.941467 -0.25753,0.760515 1.03243,1.068207 1.53499,1.117732 1.66112,0.163692 2.22521,0.343707 3.8035,-0.434239 0.70796,-0.348957 1.2579,-0.712738 1.82326,-1.266 0.42644,-0.417311 0.79212,-0.907764 1.06633,-1.437677 0.0548,-0.10586 -0.0327,-0.242975 0,-0.357582 0.0489,-0.171198 0.15912,-0.318566 0.23869,-0.477848 0.041,-0.252926 0.0566,-0.511296 0.12302,-0.758774 0.15722,-0.586076 0.4946,-1.233165 0.61326,-1.826472 0.11048,-0.552376 -0.17274,-3.348651 -0.78356,-3.450513 -0.22248,-0.0371 -0.4497,0.03567 -0.67455,0.0535 z"
     id="path19270"
     clip-path="url(#clipPath19320)" />
</svg>
