<?xml version="1.0" encoding="UTF-8" standalone="no"?>
<!-- Created with Inkscape (http://www.inkscape.org/) -->

<svg
   width="155.763mm"
   height="155.763mm"
   viewBox="0 0 155.763 155.763"
   version="1.1"
   id="svg6066"
   xmlns="http://www.w3.org/2000/svg"
   xmlns:svg="http://www.w3.org/2000/svg">
  <defs
     id="defs6063">
    <filter
       style="color-interpolation-filters:sRGB"
       id="filter17332"
       x="-0.027"
       y="-0.027"
       width="1.054"
       height="1.054">
      <feGaussianBlur
         stdDeviation="1.6625557"
         id="feGaussianBlur17334" />
    </filter>
    <filter
       style="color-interpolation-filters:sRGB"
       id="filter17336"
       x="-0.027000001"
       y="-0.027000001"
       width="1.054"
       height="1.054">
      <feGaussianBlur
         stdDeviation="0.64375149"
         id="feGaussianBlur17338" />
    </filter>
    <filter
       style="color-interpolation-filters:sRGB"
       id="filter18122"
       x="-0.108"
       y="-0.108"
       width="1.216"
       height="1.216">
      <feGaussianBlur
         stdDeviation="1.4724098"
         id="feGaussianBlur18124" />
    </filter>
  </defs>
  <g
     id="layer1"
     transform="translate(-29.400115,-15.180035)">
    <path
       style="mix-blend-mode:normal;fill:#ffffff;fill-opacity:1;stroke-width:0.264583;filter:url(#filter17332)"
       id="path15764"
       d="M 151.22433,99.416245 85.692823,107.7761 77.33297,173.30761 68.973117,107.7761 3.4416046,99.416245 68.973117,91.056392 77.33297,25.524879 85.692823,91.056391 Z"
       transform="translate(29.948644,-6.354711)" />
    <path
       style="fill:#ffffff;fill-opacity:1;stroke-width:0.264583;filter:url(#filter17336)"
       id="path17220"
       d="M 105.44611,128.00477 76.834931,104.65369 48.223753,128.00477 71.574831,99.393593 48.223753,70.782416 76.83493,94.133493 105.44611,70.782416 82.09503,99.393593 Z"
       transform="matrix(1.1789262,0,0,1.1789262,16.698905,-24.116171)" />
    <circle
       style="mix-blend-mode:normal;fill:#ffffff;fill-opacity:1;stroke-width:0.247514;filter:url(#filter18122)"
       id="path18118"
       cx="107.28162"
       cy="93.061539"
       r="16.360109"
       transform="matrix(0.85654107,0,0,0.85654107,15.390507,13.35051)" />
  </g>
</svg>
